<?xml version="1.0" encoding="UTF-8" standalone="no"?>
<!DOCTYPE svg PUBLIC "-//W3C//DTD SVG 1.1//EN" "http://www.w3.org/Graphics/SVG/1.1/DTD/svg11.dtd">
<svg width="100%" height="100%" viewBox="0 0 2915 631" version="1.1" xmlns="http://www.w3.org/2000/svg" xmlns:xlink="http://www.w3.org/1999/xlink" xml:space="preserve" xmlns:serif="http://www.serif.com/" style="fill-rule:evenodd;clip-rule:evenodd;stroke-linejoin:round;stroke-miterlimit:2;">
    <g transform="matrix(4.16273,0,0,1.27968,-1.74835,0)">
        <rect x="0.62" y="0" width="699.875" height="490.101" style="fill:rgb(211,223,209);fill-rule:nonzero;"/>
    </g>
    <g transform="matrix(4.16273,0,0,1.27968,-1.74835,0)">
        <path d="M632.154,349.5C632.154,195.136 507.018,70 352.654,70C198.291,70 73.154,195.136 73.154,349.5L632.154,349.5Z" style="fill:rgb(219,228,213);fill-rule:nonzero;"/>
    </g>
    <g transform="matrix(4.16273,0,0,1.27968,-1.74835,0)">
        <path d="M540.94,339.393C540.94,235.406 456.641,151.107 352.654,151.107C248.667,151.107 164.369,235.406 164.369,339.393L540.94,339.393Z" style="fill:rgb(224,231,219);fill-rule:nonzero;"/>
    </g>
    <g transform="matrix(4.16273,0,0,1.27968,-1.74835,0)">
        <path d="M479.154,349.5C479.154,279.636 422.518,223 352.654,223C282.791,223 226.154,279.636 226.154,349.5C226.154,419.364 282.791,476 352.654,476C422.518,476 479.154,419.364 479.154,349.5Z" style="fill:rgb(227,238,230);fill-rule:nonzero;"/>
    </g>
    <g transform="matrix(0.784314,0,0,1.24436,588.351,-231.36)">
        <g transform="matrix(4.16273,0,0,1.94833,-1.74835,0)">
            <path d="M625.812,202.105L590.176,202.105C576.369,179.905 559.527,159.771 540.246,142.302L548.985,142.302C548.95,141.709 548.927,141.113 548.927,140.511C548.927,123.997 562.314,110.609 578.828,110.609L606.215,110.609C622.729,110.609 636.117,123.997 636.117,140.511C636.117,141.71 636.038,142.89 635.901,144.052C647.45,148.191 655.713,159.23 655.713,172.203C655.713,188.717 642.326,202.105 625.812,202.105Z" style="fill:rgb(232,238,231);fill-rule:nonzero;"/>
        </g>
        <g transform="matrix(4.16273,0,0,1.94833,-1.74835,0)">
            <path d="M590.176,202.105L530.831,202.105C514.317,202.105 500.929,188.717 500.929,172.203C500.929,155.689 514.317,142.302 530.831,142.302L540.246,142.302C559.527,159.771 576.369,179.905 590.176,202.105Z" style="fill:rgb(236,241,233);fill-rule:nonzero;"/>
        </g>
    </g>
    <g transform="matrix(4.16273,0,0,1.27968,-1.74835,0)">
        <rect x="0.62" y="0" width="699.875" height="490.101" style="fill:rgb(211,223,209);fill-rule:nonzero;"/>
    </g>
    <g transform="matrix(4.16273,0,0,1.27968,-1.74835,0)">
        <path d="M632.154,349.5C632.154,195.136 507.018,70 352.654,70C198.291,70 73.154,195.136 73.154,349.5L632.154,349.5Z" style="fill:rgb(219,228,213);fill-rule:nonzero;"/>
    </g>
    <g transform="matrix(4.16273,0,0,1.27968,-1.74835,0)">
        <path d="M540.94,339.393C540.94,235.406 456.641,151.107 352.654,151.107C248.667,151.107 164.369,235.406 164.369,339.393L540.94,339.393Z" style="fill:rgb(224,231,219);fill-rule:nonzero;"/>
    </g>
    <g transform="matrix(4.16273,0,0,1.27968,-1.74835,0)">
        <path d="M479.154,349.5C479.154,279.636 422.518,223 352.654,223C282.791,223 226.154,279.636 226.154,349.5C226.154,419.364 282.791,476 352.654,476C422.518,476 479.154,419.364 479.154,349.5Z" style="fill:rgb(227,238,230);fill-rule:nonzero;"/>
    </g>
    <g transform="matrix(1.21593,0,0,0.798632,-589.02,-55.846)">
        <g transform="matrix(4.16273,0,0,1.94833,-1.74835,0)">
            <path d="M625.812,202.105L590.176,202.105C576.369,179.905 559.527,159.771 540.246,142.302L548.985,142.302C548.95,141.709 548.927,141.113 548.927,140.511C548.927,123.997 562.314,110.609 578.828,110.609L606.215,110.609C622.729,110.609 636.117,123.997 636.117,140.511C636.117,141.71 636.038,142.89 635.901,144.052C647.45,148.191 655.713,159.23 655.713,172.203C655.713,188.717 642.326,202.105 625.812,202.105Z" style="fill:rgb(232,238,231);fill-rule:nonzero;"/>
        </g>
        <g transform="matrix(4.16273,0,0,1.94833,-1.74835,0)">
            <path d="M590.176,202.105L530.831,202.105C514.317,202.105 500.929,188.717 500.929,172.203C500.929,155.689 514.317,142.302 530.831,142.302L540.246,142.302C559.527,159.771 576.369,179.905 590.176,202.105Z" style="fill:rgb(236,241,233);fill-rule:nonzero;"/>
        </g>
    </g>
    <g transform="matrix(0.712777,0,0,0.468157,-461.716,34.2226)">
        <g transform="matrix(4.16273,0,0,1.94833,-1.74835,0)">
            <path d="M625.812,202.105L590.176,202.105C576.369,179.905 559.527,159.771 540.246,142.302L548.985,142.302C548.95,141.709 548.927,141.113 548.927,140.511C548.927,123.997 562.314,110.609 578.828,110.609L606.215,110.609C622.729,110.609 636.117,123.997 636.117,140.511C636.117,141.71 636.038,142.89 635.901,144.052C647.45,148.191 655.713,159.23 655.713,172.203C655.713,188.717 642.326,202.105 625.812,202.105Z" style="fill:rgb(232,238,231);fill-rule:nonzero;"/>
        </g>
        <g transform="matrix(4.16273,0,0,1.94833,-1.74835,0)">
            <path d="M590.176,202.105L530.831,202.105C514.317,202.105 500.929,188.717 500.929,172.203C500.929,155.689 514.317,142.302 530.831,142.302L540.246,142.302C559.527,159.771 576.369,179.905 590.176,202.105Z" style="fill:rgb(236,241,233);fill-rule:nonzero;"/>
        </g>
    </g>
    <g transform="matrix(0.712777,0,0,0.468157,-1001.8,-41.179)">
        <g transform="matrix(4.16273,0,0,1.94833,-1.74835,0)">
            <path d="M625.812,202.105L590.176,202.105C576.369,179.905 559.527,159.771 540.246,142.302L548.985,142.302C548.95,141.709 548.927,141.113 548.927,140.511C548.927,123.997 562.314,110.609 578.828,110.609L606.215,110.609C622.729,110.609 636.117,123.997 636.117,140.511C636.117,141.71 636.038,142.89 635.901,144.052C647.45,148.191 655.713,159.23 655.713,172.203C655.713,188.717 642.326,202.105 625.812,202.105Z" style="fill:rgb(232,238,231);fill-rule:nonzero;"/>
        </g>
        <g transform="matrix(4.16273,0,0,1.94833,-1.74835,0)">
            <path d="M590.176,202.105L530.831,202.105C514.317,202.105 500.929,188.717 500.929,172.203C500.929,155.689 514.317,142.302 530.831,142.302L540.246,142.302C559.527,159.771 576.369,179.905 590.176,202.105Z" style="fill:rgb(236,241,233);fill-rule:nonzero;"/>
        </g>
    </g>
    <g transform="matrix(0.712777,0,0,0.468157,-1205.31,306.697)">
        <g transform="matrix(4.16273,0,0,1.94833,-1.74835,0)">
            <path d="M625.812,202.105L590.176,202.105C576.369,179.905 559.527,159.771 540.246,142.302L548.985,142.302C548.95,141.709 548.927,141.113 548.927,140.511C548.927,123.997 562.314,110.609 578.828,110.609L606.215,110.609C622.729,110.609 636.117,123.997 636.117,140.511C636.117,141.71 636.038,142.89 635.901,144.052C647.45,148.191 655.713,159.23 655.713,172.203C655.713,188.717 642.326,202.105 625.812,202.105Z" style="fill:rgb(232,238,231);fill-rule:nonzero;"/>
        </g>
        <g transform="matrix(4.16273,0,0,1.94833,-1.74835,0)">
            <path d="M590.176,202.105L530.831,202.105C514.317,202.105 500.929,188.717 500.929,172.203C500.929,155.689 514.317,142.302 530.831,142.302L540.246,142.302C559.527,159.771 576.369,179.905 590.176,202.105Z" style="fill:rgb(236,241,233);fill-rule:nonzero;"/>
        </g>
    </g>
    <g transform="matrix(4.16273,0,0,1.27968,-1.74835,0)">
        <rect x="0.42" y="115.981" width="0.2" height="44.957" style="fill:white;fill-rule:nonzero;"/>
    </g>
    <g transform="matrix(4.16273,0,0,1.27968,-1.74835,0)">
        <path d="M74.223,160.938L0.62,160.938L0.62,115.981L16.467,115.981C16.441,115.535 16.424,115.086 16.424,114.634C16.424,102.219 26.988,92.156 39.402,92.156L59.491,92.156C71.906,92.156 81.97,102.219 81.97,114.634C81.97,115.535 81.911,116.422 81.808,117.296C90.489,120.408 96.701,128.707 96.701,138.459C96.701,150.874 86.637,160.938 74.223,160.938Z" style="fill:rgb(232,238,231);fill-rule:nonzero;"/>
    </g>
    <g transform="matrix(5.12766,0,0,1.57631,-474.425,-96.4183)">
        <path d="M464.28,289.934C453.082,268.994 436.16,251.568 415.609,239.753C418.104,239.052 420.738,238.676 423.461,238.676L435.438,238.676C451.23,238.676 464.031,251.313 464.031,266.902C464.031,267.471 464.009,268.033 463.975,268.593L481.336,268.593C484.303,268.593 487.165,269.04 489.857,269.868C481.846,276.237 473.231,283.056 464.28,289.934Z" style="fill:rgb(239,243,236);fill-rule:nonzero;"/>
    </g>
    <g transform="matrix(5.12766,0,0,1.57631,-474.425,-96.4183)">
        <path d="M414.76,325.045L404.722,325.045C388.93,325.045 376.129,312.408 376.129,296.819C376.129,284.573 384.031,274.152 395.074,270.245C394.943,269.148 394.868,268.034 394.868,266.902C394.868,254.001 403.635,243.122 415.609,239.753C436.16,251.568 453.082,268.994 464.28,289.934C448.647,301.945 431.986,314.138 415.725,324.434C415.404,324.637 415.081,324.842 414.76,325.045Z" style="fill:rgb(241,246,242);fill-rule:nonzero;"/>
    </g>
    <g transform="matrix(4.16273,0,0,1.27968,-1.74835,0)">
        <path d="M0.42,491.59L0.42,323.088C0.42,323.088 0.487,323.051 0.62,322.977L0.62,404.364C0.487,404.265 0.42,404.213 0.42,404.213L0.42,491.59Z" style="fill:rgb(196,211,196);fill-rule:nonzero;"/>
    </g>
    <g transform="matrix(4.16273,0,0,1.27968,-1.74835,0)">
        <path d="M118.127,437.784C46.807,437.788 3.879,406.796 0.62,404.364L0.62,322.977C3.333,321.483 33.307,304.928 71.201,281.921C75.579,279.263 79.613,276.76 83.356,274.411C76.707,298.305 73.154,323.487 73.154,349.5L226.154,349.5C226.154,372.671 232.384,394.387 243.26,413.064C220.633,420.67 196.002,427.359 168.912,432.706C150.708,436.299 133.732,437.783 118.127,437.784Z" style="fill:rgb(192,208,193);fill-rule:nonzero;"/>
    </g>
    <g transform="matrix(4.16273,0,0,1.27968,-1.74835,0)">
        <path d="M226.154,349.5L73.154,349.5C73.154,323.487 76.707,298.305 83.356,274.411C83.571,274.276 83.789,274.139 84.003,274.004C88.004,282.16 96.388,287.773 106.085,287.773L171.533,287.773C166.868,304.175 164.369,321.494 164.369,339.393L226.552,339.393C226.289,342.728 226.154,346.097 226.154,349.5Z" style="fill:rgb(193,208,193);fill-rule:nonzero;"/>
    </g>
    <g transform="matrix(4.16273,0,0,1.27968,-1.74835,0)">
        <path d="M226.552,339.393L164.369,339.393C164.369,321.494 166.868,304.175 171.533,287.773L189.195,287.773C202.071,298.097 216.018,309.324 229.633,319.914C228.119,326.234 227.078,332.743 226.552,339.393Z" style="fill:rgb(193,208,193);fill-rule:nonzero;"/>
    </g>
    <g transform="matrix(4.16273,0,0,1.27968,-1.74835,0)">
        <path d="M243.26,413.064C232.384,394.387 226.154,372.671 226.154,349.5C226.154,346.097 226.289,342.728 226.552,339.393C227.078,332.743 228.119,326.234 229.633,319.914C234.722,323.872 239.764,327.741 244.685,331.44L250.237,316.617L259.98,342.633C266.702,347.393 272.992,351.6 278.62,355C291.304,362.662 305.525,371.287 321.335,380.195C298.006,392.047 272.287,403.307 243.26,413.064Z" style="fill:rgb(194,209,194);fill-rule:nonzero;"/>
    </g>
    <g transform="matrix(4.16273,0,0,1.27968,-1.74835,0)">
        <path d="M699.726,352.927C699.726,352.927 661.713,328.233 631.714,303.54C570.659,253.282 546.218,235.158 538.719,235.158C528.112,235.158 469.722,290.243 415.725,324.434C355.354,362.661 284.406,409.912 168.912,432.706C64.115,453.388 0.42,404.213 0.42,404.213L0.42,491.59L699.726,491.59L699.726,352.927Z" style="fill:rgb(166,191,168);fill-rule:nonzero;"/>
    </g>
    <g transform="matrix(2.76077,0,0,1.7127,112.516,-124.614)">
        <path d="M83.669,273.295C82.278,270.213 81.503,266.793 81.503,263.191C81.503,253.659 86.93,245.394 94.861,241.316C90.51,251.672 86.764,262.348 83.669,273.295Z" style="fill:rgb(232,238,231);fill-rule:nonzero;"/>
    </g>
    <g transform="matrix(2.76077,0,0,1.7127,112.516,-124.614)">
        <path d="M175.12,276.527C155.122,260.647 139.697,249 135.62,249C121.717,249 110.016,257.659 84.003,274.004C83.888,273.77 83.776,273.533 83.669,273.295C86.764,262.348 90.51,251.672 94.861,241.316C98.226,239.586 102.042,238.61 106.085,238.61L126.375,238.61C126.347,238.131 126.329,237.65 126.329,237.164C126.329,223.588 137.334,212.582 150.91,212.582L213.475,212.582C196.737,230.943 183.583,252.624 175.12,276.527Z" style="fill:rgb(236,241,233);fill-rule:nonzero;"/>
    </g>
    <g transform="matrix(2.76077,0,0,1.7127,112.516,-124.614)">
        <path d="M242.211,287.773L189.195,287.773C184.324,283.867 179.607,280.091 175.12,276.527C183.583,252.624 196.737,230.943 213.475,212.582L228.993,212.582C242.569,212.582 253.574,223.588 253.574,237.164C253.574,237.65 253.556,238.131 253.528,238.61L257.911,238.61C265.733,238.61 272.701,242.263 277.203,247.955C262.921,258.584 250.958,272.157 242.211,287.773Z" style="fill:rgb(239,243,236);fill-rule:nonzero;"/>
    </g>
    <g transform="matrix(2.76077,0,0,1.7127,112.516,-124.614)">
        <path d="M257.911,287.773L242.211,287.773C250.958,272.157 262.921,258.584 277.203,247.955C280.516,252.144 282.494,257.437 282.494,263.191C282.494,276.767 271.488,287.773 257.911,287.773Z" style="fill:rgb(241,246,242);fill-rule:nonzero;"/>
    </g>
    <g transform="matrix(2.76077,0,0,1.7127,112.516,-124.614)">
        <path d="M171.533,287.773L106.085,287.773C96.388,287.773 88.004,282.16 84.003,274.004C110.016,257.659 121.717,249 135.62,249C139.697,249 155.122,260.647 175.12,276.527C173.811,280.224 172.613,283.975 171.533,287.773Z" style="fill:rgb(222,230,221);fill-rule:nonzero;"/>
    </g>
    <g transform="matrix(4.16273,0,0,1.27968,-1.74835,0)">
        <path d="M189.195,287.773L171.533,287.773C172.613,283.975 173.811,280.224 175.12,276.527C179.607,280.091 184.324,283.867 189.195,287.773Z" style="fill:rgb(222,230,221);fill-rule:nonzero;"/>
    </g>
    <g transform="matrix(4.16273,0,0,1.27968,-1.74835,0)">
        <path d="M39.383,489.597L4.323,489.967L39.383,396.353L74.443,489.967L39.383,489.597Z" style="fill:rgb(140,182,149);fill-rule:nonzero;"/>
    </g>
    <g transform="matrix(4.16273,0,0,1.27968,-1.74835,0)">
        <path d="M87.666,490.099L62.062,490.369L87.666,422.003L113.271,490.369L87.666,490.099Z" style="fill:rgb(140,182,149);fill-rule:nonzero;"/>
    </g>
    <g transform="matrix(4.16273,0,0,1.27968,-1.74835,0)">
        <path d="M617.667,490.099L592.062,490.369L617.667,422.003L643.271,490.369L617.667,490.099Z" style="fill:rgb(140,182,149);fill-rule:nonzero;"/>
    </g>
    <g transform="matrix(4.16273,0,0,1.27968,-1.74835,0)">
        <path d="M650.667,490.851L616.9,491.207L650.667,401.046L684.433,491.207L650.667,490.851Z" style="fill:rgb(140,182,149);fill-rule:nonzero;"/>
    </g>
    <g transform="matrix(4.16273,0,0,1.27968,-1.74835,0)">
        <path d="M338.237,383.474L319.491,383.672L338.237,333.617L356.983,383.672L338.237,383.474Z" style="fill:rgb(166,191,168);fill-rule:nonzero;"/>
    </g>
    <g transform="matrix(4.16273,0,0,1.27968,-1.74835,0)">
        <path d="M363.728,370.184L350.164,370.327L363.728,334.108L377.293,370.327L363.728,370.184Z" style="fill:rgb(166,191,168);fill-rule:nonzero;"/>
    </g>
    <g transform="matrix(4.16273,0,0,1.27968,-1.74835,0)">
        <path d="M488.728,282.488L478.433,282.597L488.728,255.108L499.023,282.597L488.728,282.488Z" style="fill:rgb(166,191,168);fill-rule:nonzero;"/>
    </g>
    <g transform="matrix(4.16273,0,0,1.27968,-1.74835,0)">
        <path d="M180.728,437.488L170.433,437.597L180.728,410.108L191.023,437.597L180.728,437.488Z" style="fill:rgb(166,191,168);fill-rule:nonzero;"/>
    </g>
    <g transform="matrix(4.16273,0,0,1.27968,-1.74835,0)">
        <path d="M652.728,329.125L639.105,329.268L652.728,292.892L666.352,329.268L652.728,329.125Z" style="fill:rgb(166,191,168);fill-rule:nonzero;"/>
    </g>
    <g transform="matrix(4.16273,0,0,1.27968,-1.74835,0)">
        <path d="M523.19,491.676L452.05,491.676L452.108,491.59L523.132,491.59L523.19,491.676Z" style="fill:rgb(227,201,145);fill-rule:nonzero;"/>
    </g>
    <g transform="matrix(4.16273,0,0,1.27968,-1.74835,0)">
        <path d="M523.132,491.59L452.108,491.59L487.62,439.74L523.132,491.59ZM480.587,474.116L480.587,491.24L494.653,491.24L494.653,474.116L480.587,474.116ZM500.004,473.505L500.004,482.066L507.037,482.066L507.037,473.505L500.004,473.505ZM467.592,473.505L467.592,482.066L474.625,482.066L474.625,473.505L467.592,473.505Z" style="fill:rgb(188,181,143);fill-rule:nonzero;"/>
    </g>
    <g transform="matrix(4.16273,0,0,1.27968,-1.74835,0)">
        <path d="M523.965,492.806L523.19,491.676L523.132,491.59L525.739,491.59L525.614,491.676L523.965,492.806ZM451.276,492.806L449.626,491.676L449.501,491.59L452.108,491.59L452.05,491.676L451.276,492.806Z" style="fill:rgb(198,166,112);fill-rule:nonzero;"/>
    </g>
    <g transform="matrix(4.16273,0,0,1.27968,-1.74835,0)">
        <path d="M525.739,491.59L523.132,491.59L487.62,439.74L452.108,491.59L449.501,491.59L447.976,490.546L487.62,432.661L527.264,490.546L525.739,491.59Z" style="fill:rgb(166,151,111);fill-rule:nonzero;"/>
    </g>
    <g transform="matrix(4.16273,0,0,1.27968,-1.74835,0)">
        <rect x="480.587" y="474.116" width="14.066" height="17.124" style="fill:rgb(169,145,100);fill-rule:nonzero;"/>
    </g>
    <g transform="matrix(4.16273,0,0,1.27968,-1.74835,0)">
        <rect x="467.592" y="473.505" width="7.033" height="8.561" style="fill:rgb(169,145,100);fill-rule:nonzero;"/>
    </g>
    <g transform="matrix(4.16273,0,0,1.27968,-1.74835,0)">
        <rect x="500.004" y="473.505" width="7.033" height="8.561" style="fill:rgb(169,145,100);fill-rule:nonzero;"/>
    </g>
    <g transform="matrix(0.712777,0,0,0.940107,-461.716,-67.4837)">
        <g transform="matrix(4.16273,0,0,1.94833,-1.74835,0)">
            <path d="M625.812,202.105L590.176,202.105C576.369,179.905 559.527,159.771 540.246,142.302L548.985,142.302C548.95,141.709 548.927,141.113 548.927,140.511C548.927,123.997 562.314,110.609 578.828,110.609L606.215,110.609C622.729,110.609 636.117,123.997 636.117,140.511C636.117,141.71 636.038,142.89 635.901,144.052C647.45,148.191 655.713,159.23 655.713,172.203C655.713,188.717 642.326,202.105 625.812,202.105Z" style="fill:rgb(232,238,231);fill-rule:nonzero;"/>
        </g>
        <g transform="matrix(4.16273,0,0,1.94833,-1.74835,0)">
            <path d="M590.176,202.105L530.831,202.105C514.317,202.105 500.929,188.717 500.929,172.203C500.929,155.689 514.317,142.302 530.831,142.302L540.246,142.302C559.527,159.771 576.369,179.905 590.176,202.105Z" style="fill:rgb(236,241,233);fill-rule:nonzero;"/>
        </g>
    </g>
    <g transform="matrix(0.712777,0,0,0.677913,-941.037,-119.1)">
        <g transform="matrix(4.16273,0,0,1.94833,-1.74835,0)">
            <path d="M625.812,202.105L590.176,202.105C576.369,179.905 559.527,159.771 540.246,142.302L548.985,142.302C548.95,141.709 548.927,141.113 548.927,140.511C548.927,123.997 562.314,110.609 578.828,110.609L606.215,110.609C622.729,110.609 636.117,123.997 636.117,140.511C636.117,141.71 636.038,142.89 635.901,144.052C647.45,148.191 655.713,159.23 655.713,172.203C655.713,188.717 642.326,202.105 625.812,202.105Z" style="fill:rgb(232,238,231);fill-rule:nonzero;"/>
        </g>
        <g transform="matrix(4.16273,0,0,1.94833,-1.74835,0)">
            <path d="M590.176,202.105L530.831,202.105C514.317,202.105 500.929,188.717 500.929,172.203C500.929,155.689 514.317,142.302 530.831,142.302L540.246,142.302C559.527,159.771 576.369,179.905 590.176,202.105Z" style="fill:rgb(236,241,233);fill-rule:nonzero;"/>
        </g>
    </g>
    <g transform="matrix(0.712777,0,0,0.468157,-1205.31,306.697)">
        <g transform="matrix(4.16273,0,0,1.94833,-1.74835,0)">
            <path d="M625.812,202.105L590.176,202.105C576.369,179.905 559.527,159.771 540.246,142.302L548.985,142.302C548.95,141.709 548.927,141.113 548.927,140.511C548.927,123.997 562.314,110.609 578.828,110.609L606.215,110.609C622.729,110.609 636.117,123.997 636.117,140.511C636.117,141.71 636.038,142.89 635.901,144.052C647.45,148.191 655.713,159.23 655.713,172.203C655.713,188.717 642.326,202.105 625.812,202.105Z" style="fill:rgb(232,238,231);fill-rule:nonzero;"/>
        </g>
        <g transform="matrix(4.16273,0,0,1.94833,-1.74835,0)">
            <path d="M590.176,202.105L530.831,202.105C514.317,202.105 500.929,188.717 500.929,172.203C500.929,155.689 514.317,142.302 530.831,142.302L540.246,142.302C559.527,159.771 576.369,179.905 590.176,202.105Z" style="fill:rgb(236,241,233);fill-rule:nonzero;"/>
        </g>
    </g>
    <g transform="matrix(4.16273,0,0,1.27968,-1.74835,0)">
        <rect x="0.42" y="115.981" width="0.2" height="44.957" style="fill:white;fill-rule:nonzero;"/>
    </g>
    <g transform="matrix(4.16273,0,0,1.27968,-1.74835,0)">
        <path d="M74.223,160.938L0.62,160.938L0.62,115.981L16.467,115.981C16.441,115.535 16.424,115.086 16.424,114.634C16.424,102.219 26.988,92.156 39.402,92.156L59.491,92.156C71.906,92.156 81.97,102.219 81.97,114.634C81.97,115.535 81.911,116.422 81.808,117.296C90.489,120.408 96.701,128.707 96.701,138.459C96.701,150.874 86.637,160.938 74.223,160.938Z" style="fill:rgb(232,238,231);fill-rule:nonzero;"/>
    </g>
    <g transform="matrix(5.12766,0,0,1.57631,-474.425,-96.4183)">
        <path d="M464.28,289.934C453.082,268.994 436.16,251.568 415.609,239.753C418.104,239.052 420.738,238.676 423.461,238.676L435.438,238.676C451.23,238.676 464.031,251.313 464.031,266.902C464.031,267.471 464.009,268.033 463.975,268.593L481.336,268.593C484.303,268.593 487.165,269.04 489.857,269.868C481.846,276.237 473.231,283.056 464.28,289.934Z" style="fill:rgb(239,243,236);fill-rule:nonzero;"/>
    </g>
    <g transform="matrix(5.12766,0,0,1.57631,-474.425,-96.4183)">
        <path d="M414.76,325.045L404.722,325.045C388.93,325.045 376.129,312.408 376.129,296.819C376.129,284.573 384.031,274.152 395.074,270.245C394.943,269.148 394.868,268.034 394.868,266.902C394.868,254.001 403.635,243.122 415.609,239.753C436.16,251.568 453.082,268.994 464.28,289.934C448.647,301.945 431.986,314.138 415.725,324.434C415.404,324.637 415.081,324.842 414.76,325.045Z" style="fill:rgb(241,246,242);fill-rule:nonzero;"/>
    </g>
    <g transform="matrix(4.16273,0,0,1.27968,-1.74835,0)">
        <path d="M0.42,491.59L0.42,323.088C0.42,323.088 0.487,323.051 0.62,322.977L0.62,404.364C0.487,404.265 0.42,404.213 0.42,404.213L0.42,491.59Z" style="fill:rgb(196,211,196);fill-rule:nonzero;"/>
    </g>
    <g transform="matrix(4.16273,0,0,1.27968,-1.74835,0)">
        <path d="M118.127,437.784C46.807,437.788 3.879,406.796 0.62,404.364L0.62,322.977C3.333,321.483 33.307,304.928 71.201,281.921C75.579,279.263 79.613,276.76 83.356,274.411C76.707,298.305 73.154,323.487 73.154,349.5L226.154,349.5C226.154,372.671 232.384,394.387 243.26,413.064C220.633,420.67 196.002,427.359 168.912,432.706C150.708,436.299 133.732,437.783 118.127,437.784Z" style="fill:rgb(192,208,193);fill-rule:nonzero;"/>
    </g>
    <g transform="matrix(4.16273,0,0,1.27968,-1.74835,0)">
        <path d="M226.154,349.5L73.154,349.5C73.154,323.487 76.707,298.305 83.356,274.411C83.571,274.276 83.789,274.139 84.003,274.004C88.004,282.16 96.388,287.773 106.085,287.773L171.533,287.773C166.868,304.175 164.369,321.494 164.369,339.393L226.552,339.393C226.289,342.728 226.154,346.097 226.154,349.5Z" style="fill:rgb(193,208,193);fill-rule:nonzero;"/>
    </g>
    <g transform="matrix(4.16273,0,0,1.27968,-1.74835,0)">
        <path d="M226.552,339.393L164.369,339.393C164.369,321.494 166.868,304.175 171.533,287.773L189.195,287.773C202.071,298.097 216.018,309.324 229.633,319.914C228.119,326.234 227.078,332.743 226.552,339.393Z" style="fill:rgb(193,208,193);fill-rule:nonzero;"/>
    </g>
    <g transform="matrix(4.16273,0,0,1.27968,-1.74835,0)">
        <path d="M243.26,413.064C232.384,394.387 226.154,372.671 226.154,349.5C226.154,346.097 226.289,342.728 226.552,339.393C227.078,332.743 228.119,326.234 229.633,319.914C234.722,323.872 239.764,327.741 244.685,331.44L250.237,316.617L259.98,342.633C266.702,347.393 272.992,351.6 278.62,355C291.304,362.662 305.525,371.287 321.335,380.195C298.006,392.047 272.287,403.307 243.26,413.064Z" style="fill:rgb(194,209,194);fill-rule:nonzero;"/>
    </g>
    <g transform="matrix(4.16273,0,0,1.27968,-1.74835,0)">
        <path d="M699.726,352.927C699.726,352.927 661.713,328.233 631.714,303.54C570.659,253.282 546.218,235.158 538.719,235.158C528.112,235.158 469.722,290.243 415.725,324.434C355.354,362.661 284.406,409.912 168.912,432.706C64.115,453.388 0.42,404.213 0.42,404.213L0.42,491.59L699.726,491.59L699.726,352.927Z" style="fill:rgb(166,191,168);fill-rule:nonzero;"/>
    </g>
    <g transform="matrix(0.755726,0,0,1.32665,217.995,-120.29)">
        <g transform="matrix(2.76077,0,0,1.7127,112.516,-124.614)">
            <path d="M83.669,273.295C82.278,270.213 81.503,266.793 81.503,263.191C81.503,253.659 86.93,245.394 94.861,241.316C90.51,251.672 86.764,262.348 83.669,273.295Z" style="fill:rgb(232,238,231);fill-rule:nonzero;"/>
        </g>
        <g transform="matrix(2.76077,0,0,1.7127,112.516,-124.614)">
            <path d="M175.12,276.527C155.122,260.647 139.697,249 135.62,249C121.717,249 110.016,257.659 84.003,274.004C83.888,273.77 83.776,273.533 83.669,273.295C86.764,262.348 90.51,251.672 94.861,241.316C98.226,239.586 102.042,238.61 106.085,238.61L126.375,238.61C126.347,238.131 126.329,237.65 126.329,237.164C126.329,223.588 137.334,212.582 150.91,212.582L213.475,212.582C196.737,230.943 183.583,252.624 175.12,276.527Z" style="fill:rgb(236,241,233);fill-rule:nonzero;"/>
        </g>
        <g transform="matrix(2.76077,0,0,1.7127,112.516,-124.614)">
            <path d="M242.211,287.773L189.195,287.773C184.324,283.867 179.607,280.091 175.12,276.527C183.583,252.624 196.737,230.943 213.475,212.582L228.993,212.582C242.569,212.582 253.574,223.588 253.574,237.164C253.574,237.65 253.556,238.131 253.528,238.61L257.911,238.61C265.733,238.61 272.701,242.263 277.203,247.955C262.921,258.584 250.958,272.157 242.211,287.773Z" style="fill:rgb(239,243,236);fill-rule:nonzero;"/>
        </g>
        <g transform="matrix(2.76077,0,0,1.7127,112.516,-124.614)">
            <path d="M257.911,287.773L242.211,287.773C250.958,272.157 262.921,258.584 277.203,247.955C280.516,252.144 282.494,257.437 282.494,263.191C282.494,276.767 271.488,287.773 257.911,287.773Z" style="fill:rgb(241,246,242);fill-rule:nonzero;"/>
        </g>
        <g transform="matrix(2.76077,0,0,1.7127,112.516,-124.614)">
            <path d="M171.533,287.773L106.085,287.773C96.388,287.773 88.004,282.16 84.003,274.004C110.016,257.659 121.717,249 135.62,249C139.697,249 155.122,260.647 175.12,276.527C173.811,280.224 172.613,283.975 171.533,287.773Z" style="fill:rgb(222,230,221);fill-rule:nonzero;"/>
        </g>
        <g transform="matrix(4.16273,0,0,1.27968,-1.74835,0)">
            <path d="M189.195,287.773L171.533,287.773C172.613,283.975 173.811,280.224 175.12,276.527C179.607,280.091 184.324,283.867 189.195,287.773Z" style="fill:rgb(222,230,221);fill-rule:nonzero;"/>
        </g>
    </g>
    <g transform="matrix(4.16273,0,0,1.27968,-1.74835,0)">
        <path d="M39.383,489.597L4.323,489.967L39.383,396.353L74.443,489.967L39.383,489.597Z" style="fill:rgb(140,182,149);fill-rule:nonzero;"/>
    </g>
    <g transform="matrix(4.16273,0,0,1.27968,-1.74835,0)">
        <path d="M87.666,490.099L62.062,490.369L87.666,422.003L113.271,490.369L87.666,490.099Z" style="fill:rgb(140,182,149);fill-rule:nonzero;"/>
    </g>
    <g transform="matrix(4.16273,0,0,1.27968,-1.74835,0)">
        <path d="M617.667,490.099L592.062,490.369L617.667,422.003L643.271,490.369L617.667,490.099Z" style="fill:rgb(140,182,149);fill-rule:nonzero;"/>
    </g>
    <g transform="matrix(4.16273,0,0,1.27968,-1.74835,0)">
        <path d="M650.667,490.851L616.9,491.207L650.667,401.046L684.433,491.207L650.667,490.851Z" style="fill:rgb(140,182,149);fill-rule:nonzero;"/>
    </g>
    <g transform="matrix(4.16273,0,0,1.27968,-1.74835,0)">
        <path d="M338.237,383.474L319.491,383.672L338.237,333.617L356.983,383.672L338.237,383.474Z" style="fill:rgb(166,191,168);fill-rule:nonzero;"/>
    </g>
    <g transform="matrix(4.16273,0,0,1.27968,-1.74835,0)">
        <path d="M363.728,370.184L350.164,370.327L363.728,334.108L377.293,370.327L363.728,370.184Z" style="fill:rgb(166,191,168);fill-rule:nonzero;"/>
    </g>
    <g transform="matrix(4.16273,0,0,1.27968,-1.74835,0)">
        <path d="M488.728,282.488L478.433,282.597L488.728,255.108L499.023,282.597L488.728,282.488Z" style="fill:rgb(166,191,168);fill-rule:nonzero;"/>
    </g>
    <g transform="matrix(4.16273,0,0,1.27968,-1.74835,0)">
        <path d="M180.728,437.488L170.433,437.597L180.728,410.108L191.023,437.597L180.728,437.488Z" style="fill:rgb(166,191,168);fill-rule:nonzero;"/>
    </g>
    <g transform="matrix(4.16273,0,0,1.27968,-1.74835,0)">
        <path d="M652.728,329.125L639.105,329.268L652.728,292.892L666.352,329.268L652.728,329.125Z" style="fill:rgb(166,191,168);fill-rule:nonzero;"/>
    </g>
    <g transform="matrix(4.16273,0,0,1.27968,-1.74835,0)">
        <path d="M523.19,491.676L452.05,491.676L452.108,491.59L523.132,491.59L523.19,491.676Z" style="fill:rgb(227,201,145);fill-rule:nonzero;"/>
    </g>
    <g transform="matrix(4.16273,0,0,1.27968,-1.74835,0)">
        <path d="M523.132,491.59L452.108,491.59L487.62,439.74L523.132,491.59ZM480.587,474.116L480.587,491.24L494.653,491.24L494.653,474.116L480.587,474.116ZM500.004,473.505L500.004,482.066L507.037,482.066L507.037,473.505L500.004,473.505ZM467.592,473.505L467.592,482.066L474.625,482.066L474.625,473.505L467.592,473.505Z" style="fill:rgb(188,181,143);fill-rule:nonzero;"/>
    </g>
    <g transform="matrix(4.16273,0,0,1.27968,-1.74835,0)">
        <path d="M523.965,492.806L523.19,491.676L523.132,491.59L525.739,491.59L525.614,491.676L523.965,492.806ZM451.276,492.806L449.626,491.676L449.501,491.59L452.108,491.59L452.05,491.676L451.276,492.806Z" style="fill:rgb(198,166,112);fill-rule:nonzero;"/>
    </g>
    <g transform="matrix(4.16273,0,0,1.27968,-1.74835,0)">
        <path d="M525.739,491.59L523.132,491.59L487.62,439.74L452.108,491.59L449.501,491.59L447.976,490.546L487.62,432.661L527.264,490.546L525.739,491.59Z" style="fill:rgb(166,151,111);fill-rule:nonzero;"/>
    </g>
    <g transform="matrix(4.16273,0,0,1.27968,-1.74835,0)">
        <rect x="480.587" y="474.116" width="14.066" height="17.124" style="fill:rgb(169,145,100);fill-rule:nonzero;"/>
    </g>
    <g transform="matrix(4.16273,0,0,1.27968,-1.74835,0)">
        <rect x="467.592" y="473.505" width="7.033" height="8.561" style="fill:rgb(169,145,100);fill-rule:nonzero;"/>
    </g>
    <g transform="matrix(4.16273,0,0,1.27968,-1.74835,0)">
        <rect x="500.004" y="473.505" width="7.033" height="8.561" style="fill:rgb(169,145,100);fill-rule:nonzero;"/>
    </g>
</svg>
