<?xml version="1.0" encoding="UTF-8" standalone="no"?>
<!DOCTYPE svg PUBLIC "-//W3C//DTD SVG 1.1//EN" "http://www.w3.org/Graphics/SVG/1.1/DTD/svg11.dtd">
<svg width="100%" height="100%" viewBox="0 0 2921 638" version="1.1" xmlns="http://www.w3.org/2000/svg" xmlns:xlink="http://www.w3.org/1999/xlink" xml:space="preserve" xmlns:serif="http://www.serif.com/" style="fill-rule:evenodd;clip-rule:evenodd;stroke-linejoin:round;stroke-miterlimit:2;">
    <g transform="matrix(3.74428,0,0,1.19173,1483.42,358.646)">
        <g id="landscape-1844229" transform="matrix(1,0,0,1,-396,-306)">
            <clipPath id="_clip1">
                <rect x="0" y="0" width="792" height="612"/>
            </clipPath>
            <g clip-path="url(#_clip1)">
                <rect x="0" y="0" width="792" height="456" style="fill:url(#_Linear2);"/>
                <circle cx="595.7" cy="185.3" r="55.7" style="fill:url(#_Radial3);"/>
                <path d="M77,253C60.3,249.1 49.6,232.7 52.8,216.2C56,199.3 72.8,187.8 90,191C89,180.1 96.4,170.2 107,168C117.5,165.8 128.1,171.8 131.6,182C131,179 128.3,163.8 138,149C147.4,134.5 161.9,130.7 165,130C166.9,119.7 175.2,111.9 185,111C196.2,109.9 207.1,118 209.4,130C225.7,124.1 243.7,129.1 254,142C262.7,153 264.5,168.1 259,181.5C265.7,170.5 278.5,164.7 291,167C303.9,169.4 314.1,179.9 316,193C316.6,192.7 330,185.4 343,193C352.2,198.4 357.4,209.1 356,220C360.9,213.3 369.2,211.1 375,214C380.9,217 383.4,226.3 381.6,232.8C374.4,258 298,261 298,261C298,261 249.6,263.3 199,263C151.2,262.7 127.3,260.2 117,259C100.5,257.1 86.7,254.8 77,253Z" style="fill:url(#_Linear4);fill-rule:nonzero;"/>
                <path d="M572.2,100.9C561.3,99 554.4,90.7 556.4,82.5C558.5,74 569.4,68.3 580.7,69.9C580.1,64.5 584.9,59.5 591.8,58.4C598.6,57.3 605.6,60.3 607.9,65.4C607.5,63.9 605.8,56.3 612,48.9C618.1,41.7 627.6,39.8 629.6,39.4C630.8,34.2 636.3,30.4 642.6,29.9C649.9,29.4 657,33.4 658.5,39.4C669.1,36.5 680.9,38.9 687.6,45.4C693.3,50.9 694.5,58.5 690.9,65.1C695.2,59.6 703.6,56.7 711.8,57.9C720.2,59.1 726.8,64.3 728.1,70.9C728.5,70.7 737.2,67.1 745.7,70.9C751.7,73.6 755.1,78.9 754.2,84.4C757.4,81 762.8,79.9 766.6,81.4C770.5,82.9 772.1,87.5 770.9,90.8C766.2,103.4 716.4,104.9 716.4,104.9C716.4,104.9 684.8,106.1 651.8,105.9C620.6,105.7 605,104.5 598.3,103.9C587.5,103 578.5,101.8 572.2,100.9Z" style="fill:url(#_Linear5);fill-rule:nonzero;"/>
                <path d="M618.6,117.6C626,115.9 630.8,108.8 629.4,101.6C628,94.2 620.5,89.3 612.8,90.7C613.2,86 609.9,81.7 605.2,80.7C600.5,79.8 595.8,82.4 594.2,86.8C594.5,85.5 595.7,78.9 591.4,72.5C587.2,66.2 580.7,64.6 579.4,64.2C578.6,59.7 574.8,56.4 570.5,55.9C565.5,55.4 560.6,59 559.6,64.2C552.3,61.6 544.3,63.8 539.7,69.4C535.8,74.2 535,80.8 537.5,86.6C534.5,81.8 528.8,79.3 523.2,80.3C517.4,81.3 512.9,85.9 512,91.6C511.7,91.5 505.8,88.3 500,91.6C495.9,93.9 493.6,98.6 494.2,103.3C492,100.4 488.3,99.4 485.7,100.7C483.1,102 481.9,106 482.8,108.9C486,119.8 520.1,121.1 520.1,121.1C520.1,121.1 541.7,122.1 564.3,122C585.6,121.9 596.3,120.8 600.9,120.3C608.1,119.4 614.2,118.4 618.6,117.6Z" style="fill:url(#_Linear6);fill-rule:nonzero;"/>
                <path d="M183.5,379.9C175.8,378.5 170.8,372.4 172.3,366.3C173.8,360.1 181.6,355.8 189.6,357C189.1,353 192.6,349.3 197.5,348.5C202.4,347.7 207.3,349.9 208.9,353.7C208.6,352.6 207.4,347 211.8,341.5C216.2,336.2 222.9,334.8 224.3,334.5C225.2,330.7 229,327.8 233.6,327.5C238.8,327.1 243.8,330.1 244.9,334.5C252.5,332.3 260.8,334.2 265.6,338.9C269.6,342.9 270.5,348.5 267.9,353.4C271,349.3 276.9,347.2 282.7,348.1C288.7,349 293.4,352.8 294.3,357.7C294.6,357.6 300.8,354.9 306.8,357.7C311.1,359.7 313.5,363.6 312.8,367.6C315.1,365.1 318.9,364.3 321.6,365.4C324.3,366.5 325.5,369.9 324.6,372.3C321.3,381.6 285.9,382.7 285.9,382.7C285.9,382.7 263.4,383.6 240,383.4C217.8,383.3 206.7,382.4 202,381.9C194.4,381.4 188,380.5 183.5,379.9Z" style="fill:url(#_Linear7);fill-rule:nonzero;"/>
                <path d="M12,352.2C4.3,350.8 -0.7,344.7 0.8,338.6C2.3,332.4 10.1,328.1 18.1,329.3C17.6,325.3 21.1,321.6 26,320.8C30.9,320 35.8,322.2 37.4,326C37.1,324.9 35.9,319.3 40.3,313.8C44.7,308.5 51.4,307.1 52.8,306.8C53.7,303 57.5,300.1 62.1,299.8C67.3,299.4 72.3,302.4 73.4,306.8C81,304.6 89.3,306.5 94.1,311.2C98.1,315.2 99,320.8 96.4,325.7C99.5,321.6 105.4,319.5 111.2,320.4C117.2,321.3 121.9,325.1 122.8,330C123.1,329.9 129.3,327.2 135.3,330C139.6,332 142,335.9 141.3,339.9C143.6,337.4 147.4,336.6 150.1,337.7C152.8,338.8 154,342.2 153.1,344.6C149.8,353.9 114.4,355 114.4,355C114.4,355 91.9,355.9 68.5,355.7C46.3,355.6 35.2,354.7 30.5,354.2C22.9,353.7 16.5,352.9 12,352.2Z" style="fill:url(#_Linear8);fill-rule:nonzero;"/>
                <path d="M533.5,341.3C525.8,339.9 520.8,333.8 522.3,327.7C523.8,321.5 531.6,317.2 539.6,318.4C539.1,314.4 542.6,310.7 547.5,309.9C552.4,309.1 557.3,311.3 558.9,315.1C558.6,314 557.4,308.4 561.8,302.9C566.2,297.6 572.9,296.2 574.3,295.9C575.2,292.1 579,289.2 583.6,288.9C588.8,288.5 593.8,291.5 594.9,295.9C602.5,293.7 610.8,295.6 615.6,300.3C619.6,304.3 620.5,309.9 617.9,314.8C621,310.7 626.9,308.6 632.7,309.5C638.7,310.4 643.4,314.2 644.3,319.1C644.6,319 650.8,316.3 656.8,319.1C661.1,321.1 663.5,325 662.8,329C665.1,326.5 668.9,325.7 671.6,326.8C674.3,327.9 675.5,331.3 674.6,333.7C671.3,343 635.9,344.1 635.9,344.1C635.9,344.1 613.4,345 590,344.8C567.8,344.7 556.7,343.8 552,343.3C544.4,342.8 538.1,341.9 533.5,341.3Z" style="fill:url(#_Linear9);fill-rule:nonzero;"/>
                <path d="M437,364.3C425.6,362.4 418.3,354.1 420.4,345.9C422.6,337.4 434.1,331.7 445.9,333.3C445.2,327.9 450.3,322.9 457.5,321.8C464.7,320.7 471.9,323.7 474.4,328.8C474,327.3 472.2,319.7 478.8,312.3C485.2,305.1 495.2,303.2 497.3,302.8C498.6,297.6 504.3,293.8 511,293.3C518.7,292.8 526.1,296.8 527.7,302.8C538.9,299.9 551.2,302.3 558.2,308.8C564.1,314.3 565.4,321.9 561.6,328.6C566.2,323.1 574.9,320.2 583.5,321.4C592.4,322.6 599.3,327.8 600.6,334.4C601,334.2 610.2,330.6 619.1,334.4C625.4,337.1 628.9,342.4 628,347.9C631.4,344.5 637.1,343.4 641,344.9C645.1,346.4 646.8,351 645.5,354.3C640.6,366.9 588.4,368.4 588.3,368.4C588.3,368.4 555.2,369.6 520.6,369.4C487.9,369.2 471.5,368 464.5,367.4C453.1,366.4 443.7,365.2 437,364.3Z" style="fill:url(#_Linear10);fill-rule:nonzero;"/>
                <path d="M792,379.6C788.4,375.3 784.8,371.1 781.3,366.8C781.4,367.8 782.3,379 776.2,386.9C770.7,394 763.8,392.8 762.8,392.6C760.7,392.8 748.1,393.9 739.1,381.1C735.6,376.1 733.8,370.6 732.9,366.8L716.4,379.7C702,360.9 682.9,339.4 658.8,319.5C642.2,305.9 626.5,295.7 612.5,288C607.5,300.7 594,330.4 567.3,351C541.9,370.6 518.1,371.5 507.7,371.1C504.6,370 498.6,367.2 493.3,359.6C490.8,356.1 489.2,352.5 488.2,349.6C479.8,362.5 466.1,380.6 446,395.4C422,413.2 370.1,422.5 363.7,415.5C355.1,405.9 355.4,391.3 355.5,389.7C347.3,399.7 339,409.8 330.8,419.8C319.1,406.7 303.4,391.6 283.5,378.3C265.5,366.2 248.8,358.7 235.2,354C223.4,366.5 187.1,402.7 143.7,409.9C124,413.2 101.6,420.4 91.3,402.7C83.2,389 86.3,367.8 88.2,358.3C72.3,369.9 55.2,384.4 37.8,402.7C32.4,408.4 27.2,414.2 22.4,419.9C16.5,418.1 0.4,407.2 0.4,407.2L0,488.3C0,488.3 525.6,485.5 792,484.1" style="fill:url(#_Linear11);fill-rule:nonzero;"/>
                <path d="M0,392.3C4,388.9 8,385.4 12.1,382C12,382.7 11.1,390.5 17.1,396C22.5,400.9 29.2,400.1 30.1,400C32.2,400.2 44.4,400.9 53.1,392C56.5,388.5 58.2,384.7 59.1,382C64.4,385 69.8,388 75.1,391C89.1,377.8 107.7,362.8 131.1,349C147.2,339.5 162.5,332.4 176.1,327C181,335.9 194.1,356.6 220.1,371C244.8,384.7 267.9,385.3 278.1,385C281.1,384.2 287,382.3 292.1,377C294.5,374.5 296.1,372 297.1,370C305.2,379 318.6,391.6 338.1,402C361.4,414.4 411.9,421 418.1,416C426.4,409.3 426.1,399.1 426.1,398L450.1,419C461.5,409.9 476.8,399.3 496.1,390C513.6,381.5 529.8,376.3 543.1,373C554.6,381.7 589.9,407 632.1,412C651.3,414.3 673,419.4 683.1,407C690.9,397.4 687.9,382.7 686.1,376C701.6,384.1 718.2,394.2 735.1,407C740.4,411 745.4,415 750.1,419C755.9,417.7 763.6,415.3 771.5,410.1C779.9,404.6 792,399.9 792.1,399.7L792.1,467L0,464" style="fill:url(#_Linear12);fill-rule:nonzero;"/>
                <path d="M0.5,417.9C19.7,409.3 43.8,400.9 72,396.3C152.5,383.1 207.5,410.3 297,432C339.3,442.2 397.2,447.8 513,459C636,470.9 792,479.6 792,479.6L792,518C792,518 12.7,552.2 0,555.4L0.5,417.9Z" style="fill:url(#_Linear13);fill-rule:nonzero;"/>
                <path d="M0.5,452.9C70.4,473.8 191.7,506.5 334.5,477C349.6,473.9 344.4,474.4 371.5,468C503,436.8 792,447.7 792,447.7C792,447.7 792,544.2 792,543.5C792,542.8 254.7,647.4 1.7,498.9C0.1,465.7 1.5,495.7 0.7,459C0.6,457.1 0.6,455.1 0.5,452.9Z" style="fill:url(#_Linear14);fill-rule:nonzero;"/>
                <path d="M792,500.7C675.4,514.7 543.9,524.2 399.8,524.3C253.1,524.4 119.3,514.9 1,500.7L1,612.1L792,612.1L792,500.7Z" style="fill:url(#_Linear15);fill-rule:nonzero;"/>
            </g>
        </g>
    </g>
    <defs>
        <linearGradient id="_Linear2" x1="0" y1="0" x2="1" y2="0" gradientUnits="userSpaceOnUse" gradientTransform="matrix(2.79218e-14,455.997,-455.997,2.79218e-14,396,-0.027313)"><stop offset="0" style="stop-color:rgb(0,136,188);stop-opacity:1"/><stop offset="0.99" style="stop-color:rgb(213,238,241);stop-opacity:1"/><stop offset="1" style="stop-color:rgb(213,238,241);stop-opacity:1"/></linearGradient>
        <radialGradient id="_Radial3" cx="0" cy="0" r="1" gradientUnits="userSpaceOnUse" gradientTransform="matrix(55.708,0,0,55.708,595.71,185.29)"><stop offset="0" style="stop-color:rgb(244,243,176);stop-opacity:1"/><stop offset="0.01" style="stop-color:rgb(244,243,176);stop-opacity:1"/><stop offset="1" style="stop-color:rgb(249,237,50);stop-opacity:1"/></radialGradient>
        <linearGradient id="_Linear4" x1="0" y1="0" x2="1" y2="0" gradientUnits="userSpaceOnUse" gradientTransform="matrix(9.31466e-15,152.12,-152.12,9.31466e-15,217.2,110.88)"><stop offset="0" style="stop-color:white;stop-opacity:0.68"/><stop offset="0.99" style="stop-color:rgb(219,239,249);stop-opacity:0.68"/><stop offset="1" style="stop-color:rgb(219,239,249);stop-opacity:0.68"/></linearGradient>
        <linearGradient id="_Linear5" x1="0" y1="0" x2="1" y2="0" gradientUnits="userSpaceOnUse" gradientTransform="matrix(4.65752e-15,76.063,-76.063,4.65752e-15,663.58,29.877)"><stop offset="0" style="stop-color:white;stop-opacity:0.82"/><stop offset="0.99" style="stop-color:rgb(219,239,249);stop-opacity:0.82"/><stop offset="1" style="stop-color:rgb(219,239,249);stop-opacity:0.82"/></linearGradient>
        <linearGradient id="_Linear6" x1="0" y1="0" x2="1" y2="0" gradientUnits="userSpaceOnUse" gradientTransform="matrix(4.04703e-15,66.093,-66.093,4.04703e-15,556.005,55.877)"><stop offset="0" style="stop-color:white;stop-opacity:0.92"/><stop offset="0.99" style="stop-color:rgb(219,239,249);stop-opacity:0.92"/><stop offset="1" style="stop-color:rgb(219,239,249);stop-opacity:0.92"/></linearGradient>
        <linearGradient id="_Linear7" x1="0" y1="0" x2="1" y2="0" gradientUnits="userSpaceOnUse" gradientTransform="matrix(3.43085e-15,56.03,-56.03,3.43085e-15,248.47,327.54)"><stop offset="0" style="stop-color:white;stop-opacity:0.79"/><stop offset="0.99" style="stop-color:rgb(219,239,249);stop-opacity:0.79"/><stop offset="1" style="stop-color:rgb(219,239,249);stop-opacity:0.79"/></linearGradient>
        <linearGradient id="_Linear8" x1="0" y1="0" x2="1" y2="0" gradientUnits="userSpaceOnUse" gradientTransform="matrix(3.43085e-15,56.03,-56.03,3.43085e-15,77,299.9)"><stop offset="0" style="stop-color:white;stop-opacity:0.79"/><stop offset="0.99" style="stop-color:rgb(219,239,249);stop-opacity:0.79"/><stop offset="1" style="stop-color:rgb(219,239,249);stop-opacity:0.79"/></linearGradient>
        <linearGradient id="_Linear9" x1="0" y1="0" x2="1" y2="0" gradientUnits="userSpaceOnUse" gradientTransform="matrix(3.43085e-15,56.03,-56.03,3.43085e-15,598.53,288.94)"><stop offset="0" style="stop-color:white;stop-opacity:0.79"/><stop offset="0.99" style="stop-color:rgb(219,239,249);stop-opacity:0.79"/><stop offset="1" style="stop-color:rgb(219,239,249);stop-opacity:0.79"/></linearGradient>
        <linearGradient id="_Linear10" x1="0" y1="0" x2="1" y2="0" gradientUnits="userSpaceOnUse" gradientTransform="matrix(4.65733e-15,76.06,-76.06,4.65733e-15,532.94,293.3)"><stop offset="0" style="stop-color:white;stop-opacity:0.79"/><stop offset="0.99" style="stop-color:rgb(219,239,249);stop-opacity:0.79"/><stop offset="1" style="stop-color:rgb(219,239,249);stop-opacity:0.79"/></linearGradient>
        <linearGradient id="_Linear11" x1="0" y1="0" x2="1" y2="0" gradientUnits="userSpaceOnUse" gradientTransform="matrix(1.22697e-14,200.38,-200.38,1.22697e-14,396,287.97)"><stop offset="0" style="stop-color:rgb(173,209,239);stop-opacity:1"/><stop offset="0.99" style="stop-color:rgb(77,179,230);stop-opacity:1"/><stop offset="1" style="stop-color:rgb(77,179,230);stop-opacity:1"/></linearGradient>
        <linearGradient id="_Linear12" x1="0" y1="0" x2="1" y2="0" gradientUnits="userSpaceOnUse" gradientTransform="matrix(8.57192e-15,139.99,-139.99,8.57192e-15,396,326.97)"><stop offset="0" style="stop-color:rgb(186,207,235);stop-opacity:1"/><stop offset="1" style="stop-color:rgb(87,131,195);stop-opacity:1"/></linearGradient>
        <linearGradient id="_Linear13" x1="0" y1="0" x2="1" y2="0" gradientUnits="userSpaceOnUse" gradientTransform="matrix(9.95148e-15,162.52,-162.52,9.95148e-15,396,392.83)"><stop offset="0" style="stop-color:rgb(136,192,63);stop-opacity:1"/><stop offset="0.97" style="stop-color:rgb(92,137,42);stop-opacity:1"/><stop offset="1" style="stop-color:rgb(92,137,42);stop-opacity:1"/></linearGradient>
        <linearGradient id="_Linear14" x1="0" y1="0" x2="1" y2="0" gradientUnits="userSpaceOnUse" gradientTransform="matrix(8.12676e-15,132.72,-132.72,8.12676e-15,396.26,445.86)"><stop offset="0" style="stop-color:rgb(136,192,63);stop-opacity:1"/><stop offset="1" style="stop-color:rgb(72,112,31);stop-opacity:1"/><stop offset="1" style="stop-color:rgb(72,112,31);stop-opacity:1"/></linearGradient>
        <linearGradient id="_Linear15" x1="0" y1="0" x2="1" y2="0" gradientUnits="userSpaceOnUse" gradientTransform="matrix(6.81822e-15,111.35,-111.35,6.81822e-15,396.5,500.68)"><stop offset="0" style="stop-color:rgb(141,198,63);stop-opacity:1"/><stop offset="0.97" style="stop-color:rgb(97,130,62);stop-opacity:1"/><stop offset="1" style="stop-color:rgb(97,130,62);stop-opacity:1"/></linearGradient>
    </defs>
</svg>
