<?xml version="1.0" encoding="UTF-8" standalone="no"?>
<!DOCTYPE svg PUBLIC "-//W3C//DTD SVG 1.1//EN" "http://www.w3.org/Graphics/SVG/1.1/DTD/svg11.dtd">
<svg width="100%" height="100%" viewBox="0 0 2921 638" version="1.1" xmlns="http://www.w3.org/2000/svg" xmlns:xlink="http://www.w3.org/1999/xlink" xml:space="preserve" xmlns:serif="http://www.serif.com/" style="fill-rule:evenodd;clip-rule:evenodd;stroke-linejoin:round;stroke-miterlimit:2;">
    <g transform="matrix(4.16667,0,0,1.30101,0.000639775,-637.331)">
        <rect x="0.62" y="489.875" width="699.875" height="490.101" style="fill:rgb(254,235,174);fill-rule:nonzero;"/>
    </g>
    <g transform="matrix(4.16667,0,0,1.30101,0.000639775,-637.331)">
        <rect x="0.62" y="829" width="699.106" height="151" style="fill:rgb(255,232,213);fill-rule:nonzero;"/>
    </g>
    <g transform="matrix(4.16667,0,0,1.30101,0.000639775,-637.331)">
        <path d="M632.154,809.5C632.154,655.137 507.018,530 352.654,530C198.291,530 73.154,655.137 73.154,809.5L632.154,809.5Z" style="fill:rgb(254,240,188);fill-rule:nonzero;"/>
    </g>
    <g transform="matrix(4.16667,0,0,1.30101,0.000639775,-637.331)">
        <path d="M552.94,811.393C552.94,700.778 463.269,611.107 352.654,611.107C242.04,611.107 152.369,700.778 152.369,811.393L552.94,811.393Z" style="fill:rgb(254,246,203);fill-rule:nonzero;"/>
    </g>
    <g transform="matrix(4.16667,0,0,1.30101,0.000639775,-637.331)">
        <path d="M479.154,809.5C479.154,739.636 422.518,683 352.654,683C282.79,683 226.154,739.636 226.154,809.5L479.154,809.5Z" style="fill:rgb(255,252,225);fill-rule:nonzero;"/>
    </g>
    <g transform="matrix(4.16667,0,0,1.30101,0.000639775,-637.331)">
        <path d="M124.805,647.583L77.512,647.583C66.546,647.583 57.655,638.57 57.655,627.453C57.655,618.72 63.143,611.288 70.812,608.502C70.721,607.719 70.669,606.925 70.669,606.118C70.669,595.001 79.559,585.988 90.526,585.988L108.714,585.988C119.681,585.988 128.571,595.001 128.571,606.118C128.571,606.523 128.556,606.924 128.533,607.324L140.589,607.324C145.829,607.324 150.595,609.381 154.143,612.742C143.453,623.526 133.635,635.18 124.805,647.583Z" style="fill:rgb(255,245,213);fill-rule:nonzero;"/>
    </g>
    <g transform="matrix(4.16667,0,0,1.30101,0.000639775,-637.331)">
        <path d="M140.589,647.583L124.805,647.583C133.635,635.18 143.453,623.526 154.143,612.742C158.022,616.416 160.446,621.648 160.446,627.453C160.446,638.57 151.556,647.583 140.589,647.583Z" style="fill:rgb(255,248,220);fill-rule:nonzero;"/>
    </g>
    <g transform="matrix(4.16667,0,0,1.30101,0.000639775,-637.331)">
        <path d="M523.19,491.676L452.05,491.676L452.108,491.59L523.132,491.59L523.19,491.676Z" style="fill:rgb(227,201,145);fill-rule:nonzero;"/>
    </g>
    <g transform="matrix(4.16667,0,0,1.30101,0.000639775,-637.331)">
        <path d="M523.965,492.806L523.19,491.676L523.132,491.59L525.739,491.59L525.614,491.676L523.965,492.806ZM451.276,492.806L449.626,491.676L449.501,491.59L452.108,491.59L452.05,491.676L451.276,492.806Z" style="fill:rgb(198,166,112);fill-rule:nonzero;"/>
    </g>
    <g transform="matrix(4.16667,0,0,1.30101,0.000639775,-637.331)">
        <path d="M0.62,890.105C0.486,889.934 0.42,889.843 0.42,889.843L0.42,788.575L0.62,788.575L0.62,890.105Z" style="fill:rgb(249,249,249);"/>
    </g>
    <g transform="matrix(4.16667,0,0,1.30101,0.000639775,-637.331)">
        <path d="M699.726,903.265L699.726,829L0.62,829L0.62,890.105L0.62,788.575L73.926,788.575C73.414,795.483 73.154,802.462 73.154,809.5L152.378,809.5C152.372,810.133 152.369,810.758 152.369,811.393L552.94,811.393C552.94,810.758 552.937,810.133 552.931,809.5L632.154,809.5C632.154,802.462 631.894,795.483 631.383,788.575L699.726,788.575L699.726,903.265Z" style="fill:rgb(248,244,230);fill-rule:nonzero;"/>
    </g>
    <g transform="matrix(4.16667,0,0,1.30101,0.000639775,-637.331)">
        <path d="M612.764,918.061C609.351,918.061 606.139,917.907 603.215,917.569C571.582,913.909 525.348,888.79 495.221,887.571C494.248,887.531 493.263,887.512 492.254,887.512C462.012,887.512 415.537,904.804 357.228,913.069C345.654,914.71 334.335,915.377 323.155,915.377C276.129,915.377 231.635,903.555 181.736,902.57C175.569,902.448 170.053,902.388 165.071,902.388C120.154,902.388 118.632,907.283 75.241,916.069C69.484,917.235 64.037,917.748 58.904,917.748C23.218,917.748 2.827,892.932 0.62,890.105L0.62,829L699.726,829L699.726,903.265C699.726,903.265 646.29,918.063 612.764,918.061Z" style="fill:rgb(249,244,240);fill-rule:nonzero;"/>
    </g>
    <g transform="matrix(4.16667,0,0,1.30101,0.000639775,-637.331)">
        <path d="M632.154,809.5L552.931,809.5C552.865,802.433 552.434,795.449 551.654,788.575L631.383,788.575C631.894,795.483 632.154,802.462 632.154,809.5ZM152.378,809.5L73.154,809.5C73.154,802.462 73.414,795.483 73.926,788.575L153.655,788.575C152.875,795.449 152.444,802.433 152.378,809.5Z" style="fill:rgb(248,245,233);fill-rule:nonzero;"/>
    </g>
    <g transform="matrix(4.16667,0,0,1.30101,0.000639775,-637.331)">
        <path d="M552.94,811.393L152.369,811.393C152.369,810.758 152.372,810.133 152.378,809.5C152.444,802.433 152.875,795.449 153.655,788.575L227.877,788.575C226.743,795.383 226.154,802.37 226.154,809.5L479.154,809.5C479.154,802.37 478.565,795.383 477.432,788.575L551.654,788.575C552.434,795.449 552.865,802.433 552.931,809.5C552.937,810.133 552.94,810.758 552.94,811.393Z" style="fill:rgb(248,246,237);fill-rule:nonzero;"/>
    </g>
    <g transform="matrix(4.16667,0,0,1.30101,0.000639775,-637.331)">
        <path d="M479.154,809.5L226.154,809.5C226.154,802.37 226.743,795.383 227.877,788.575L477.432,788.575C478.565,795.383 479.154,802.37 479.154,809.5Z" style="fill:rgb(249,249,243);fill-rule:nonzero;"/>
    </g>
    <g transform="matrix(4.16667,0,0,1.30101,0.000639775,-637.331)">
        <path d="M699.726,903.265L699.726,795L699.726,788.575L699.726,903.265Z" style="fill:rgb(248,240,230);fill-rule:nonzero;"/>
    </g>
    <g transform="matrix(4.16667,0,0,1.30101,0.000639775,-637.331)">
        <path d="M0.42,764.577L699.725,764.577L699.725,865.845C699.725,865.845 640.714,912.208 592.716,902.448C544.718,892.687 526.719,869.505 465.222,870.725C403.725,871.945 349.728,909.768 289.731,901.228C229.734,892.687 169.737,879.266 139.739,880.486C109.74,881.706 84.241,898.787 52.743,902.448C21.244,906.108 0.42,879.266 0.42,879.266L0.42,764.577Z" style="fill:rgb(201,230,244);fill-rule:nonzero;"/>
    </g>
    <g transform="matrix(4.16667,0,0,1.30101,0.000639775,-637.331)">
        <path d="M313.62,896.5C327.479,896.216 339.811,889.699 353.285,887.411C356.459,886.872 355.108,882.054 351.956,882.589C338.948,884.799 326.983,891.227 313.62,891.5C310.4,891.566 310.394,896.566 313.62,896.5Z" style="fill:rgb(247,247,247);fill-rule:nonzero;"/>
    </g>
    <g transform="matrix(4.16667,0,0,1.30101,0.000639775,-637.331)">
        <path d="M239.358,887.159C243.573,889.191 247.924,890.416 252.62,890.5C255.846,890.558 255.841,885.557 252.62,885.5C248.83,885.432 245.29,884.484 241.882,882.841C238.992,881.448 236.455,885.759 239.358,887.159Z" style="fill:rgb(247,247,247);fill-rule:nonzero;"/>
    </g>
    <g transform="matrix(4.16667,0,0,1.30101,0.000639775,-637.331)">
        <path d="M96.882,895.159C106.353,890.153 115.874,885.23 125.774,881.116C134.551,877.469 143.94,873.65 153.556,873.668C170.099,873.698 188.137,881.942 204.285,875.411C207.234,874.218 205.946,869.38 202.956,870.589C186.673,877.176 167.742,868.272 150.886,868.699C141.308,868.941 131.619,873.313 122.904,876.935C113.123,881 103.715,885.896 94.358,890.841C91.506,892.348 94.033,896.664 96.882,895.159Z" style="fill:rgb(247,247,247);fill-rule:nonzero;"/>
    </g>
    <g transform="matrix(4.16667,0,0,1.30101,0.000639775,-637.331)">
        <path d="M453.285,874.411C473.569,870.966 495.534,871.487 515.831,874.51C536.669,877.615 555.077,892.302 576.62,891.5C579.834,891.38 579.846,886.38 576.62,886.5C565.194,886.925 554.218,882.256 543.794,878.119C533.926,874.202 524.363,870.586 513.783,869.209C493.546,866.574 472.13,866.163 451.956,869.589C448.782,870.128 450.132,874.946 453.285,874.411Z" style="fill:rgb(247,247,247);fill-rule:nonzero;"/>
    </g>
    <g transform="matrix(4.16667,0,0,1.30101,0.000639775,-637.331)">
        <path d="M697.956,862.589C671.627,872.222 647.175,888.239 618.62,890.5C615.428,890.753 615.404,895.755 618.62,895.5C647.771,893.192 672.424,877.238 699.285,867.411C702.287,866.312 700.991,861.479 697.956,862.589Z" style="fill:rgb(247,247,247);fill-rule:nonzero;"/>
    </g>
    <g transform="matrix(4.16667,0,0,1.30101,0.000639775,-637.331)">
        <path d="M375.62,879.5C396.963,878.051 417.671,870.611 438.285,865.411C441.41,864.622 440.083,859.8 436.956,860.589C416.804,865.673 396.48,873.083 375.62,874.5C372.421,874.717 372.4,879.719 375.62,879.5Z" style="fill:rgb(247,247,247);fill-rule:nonzero;"/>
    </g>
    <g transform="matrix(4.16667,0,0,1.30101,0.000639775,-637.331)">
        <path d="M32.852,894.768C45.643,904.715 64.072,905.607 79.62,904.5C82.817,904.272 82.839,899.271 79.62,899.5C65.634,900.495 47.978,900.246 36.388,891.232C33.875,889.278 30.309,892.79 32.852,894.768Z" style="fill:rgb(247,247,247);fill-rule:nonzero;"/>
    </g>
    <g transform="matrix(4.16667,0,0,1.30101,0.000639775,-637.331)">
        <path d="M0.852,863.768C17.581,877.392 35.957,885.36 57.62,886.5C60.843,886.67 60.827,881.669 57.62,881.5C37.369,880.434 20.033,872.973 4.387,860.232C1.911,858.215 -1.649,861.731 0.852,863.768Z" style="fill:rgb(247,247,247);fill-rule:nonzero;"/>
    </g>
    <g transform="matrix(4.16667,0,0,1.30101,0.000639775,-637.331)">
        <path d="M569.358,872.159C587.623,880.948 606.116,879.326 623.882,870.159C626.748,868.68 624.219,864.365 621.358,865.841C605.291,874.133 588.446,875.812 571.882,867.841C568.991,866.45 566.454,870.761 569.358,872.159Z" style="fill:rgb(247,247,247);fill-rule:nonzero;"/>
    </g>
    <g transform="matrix(4.16667,0,0,1.30101,0.000639775,-637.331)">
        <path d="M260.956,880.411C278.149,884.572 297.015,885.79 314.285,881.411C317.409,880.619 316.083,875.796 312.956,876.589C296.574,880.744 278.586,879.535 262.285,875.589C259.152,874.831 257.823,879.652 260.956,880.411Z" style="fill:rgb(247,247,247);fill-rule:nonzero;"/>
    </g>
    <g transform="matrix(4.16667,0,0,1.30101,0.000639775,-637.331)">
        <path d="M490.62,853.5C495.548,853.503 500.286,853.673 504.956,855.411C507.984,856.538 509.279,851.703 506.285,850.589C501.223,848.706 495.965,848.504 490.62,848.5C487.396,848.498 487.396,853.498 490.62,853.5Z" style="fill:rgb(247,247,247);fill-rule:nonzero;"/>
    </g>
    <g transform="matrix(4.16667,0,0,1.30101,0.000639775,-637.331)">
        <path d="M99.62,877.5C100.65,877.453 101.391,877.109 102.178,876.467C102.302,876.366 102.411,876.244 102.526,876.133C102.824,875.846 101.971,876.506 102.332,876.29C102.197,876.347 102.061,876.404 101.926,876.461C102.172,876.403 102.07,876.416 101.62,876.5C102.981,876.437 104.12,875.41 104.12,874C104.12,872.685 102.982,871.437 101.62,871.5C100.59,871.547 99.849,871.891 99.062,872.533C98.938,872.634 98.829,872.756 98.714,872.867C98.416,873.154 99.269,872.494 98.908,872.71C99.043,872.653 99.178,872.596 99.314,872.539C99.068,872.597 99.17,872.584 99.62,872.5C98.259,872.563 97.12,873.59 97.12,875C97.12,876.315 98.257,877.563 99.62,877.5Z" style="fill:rgb(247,247,247);fill-rule:nonzero;"/>
    </g>
    <g transform="matrix(4.16667,0,0,1.30101,0.000639775,-637.331)">
        <path d="M143.62,911.5C161.453,911.624 178.642,915.551 195.956,919.411C199.097,920.111 200.431,915.291 197.285,914.589C179.54,910.633 161.894,906.627 143.62,906.5C140.395,906.477 140.397,911.478 143.62,911.5Z" style="fill:rgb(247,247,247);fill-rule:nonzero;"/>
    </g>
    <g transform="matrix(4.16667,0,0,1.30101,0.000639775,-637.331)">
        <path d="M369.62,919.5C386.842,917.363 403.496,912.635 420.285,908.411C423.41,907.624 422.084,902.802 418.956,903.589C402.622,907.699 386.377,912.421 369.62,914.5C366.464,914.892 366.426,919.896 369.62,919.5Z" style="fill:rgb(247,247,247);fill-rule:nonzero;"/>
    </g>
    <g transform="matrix(4.16667,0,0,1.30101,0.000639775,-637.331)">
        <path d="M526.956,905.411C542.182,907.792 554.008,919.16 569.62,920.5C572.834,920.776 572.808,915.773 569.62,915.5C554.603,914.211 543.048,902.898 528.285,900.589C525.132,900.096 523.776,904.914 526.956,905.411Z" style="fill:rgb(247,247,247);fill-rule:nonzero;"/>
    </g>
    <g transform="matrix(4.16667,0,0,1.30101,0.000639775,-637.331)">
        <path d="M590.956,925.411C593.583,926.248 596.329,926.573 598.956,927.411C602.036,928.393 603.344,923.565 600.285,922.589C597.658,921.752 594.912,921.427 592.285,920.589C589.204,919.607 587.896,924.435 590.956,925.411Z" style="fill:rgb(247,247,247);fill-rule:nonzero;"/>
    </g>
    <g transform="matrix(4.16667,0,0,1.30101,0.000639775,-637.331)">
        <path d="M643.62,926.5C651.827,926.287 659.478,923.691 667.285,921.411C670.373,920.509 669.058,915.683 665.956,916.589C658.594,918.739 651.365,921.299 643.62,921.5C640.402,921.583 640.394,926.584 643.62,926.5Z" style="fill:rgb(247,247,247);fill-rule:nonzero;"/>
    </g>
    <g transform="matrix(4.16667,0,0,1.30101,0.000639775,-637.331)">
        <path d="M264.358,919.159C267.523,921.139 270.967,921.497 274.62,921.5C277.845,921.503 277.844,916.503 274.62,916.5C271.826,916.498 269.312,916.362 266.882,914.841C264.14,913.125 261.633,917.453 264.358,919.159Z" style="fill:rgb(247,247,247);fill-rule:nonzero;"/>
    </g>
    <g transform="matrix(4.16667,0,0,1.30101,0.000639775,-637.331)">
        <path d="M77.284,926.411C81.284,925.411 85.284,924.411 89.284,923.411C92.411,922.629 91.084,917.807 87.955,918.589C83.955,919.589 79.955,920.589 75.955,921.589C72.828,922.371 74.155,927.193 77.284,926.411Z" style="fill:rgb(247,247,247);fill-rule:nonzero;"/>
    </g>
    <g transform="matrix(4.16667,0,0,1.30101,0.000639775,-637.331)">
        <path d="M469.388,901.768C468.878,902.232 469.956,901.533 469.34,901.775C469.676,901.643 470.038,901.578 470.392,901.519C469.778,901.621 470.643,901.519 470.763,901.513C471.048,901.499 471.335,901.5 471.62,901.5C472.983,901.499 474.12,900.364 474.12,899C474.12,897.638 472.983,896.499 471.62,896.5C469.536,896.502 467.451,896.776 465.852,898.232C464.845,899.15 464.923,900.838 465.852,901.768C466.849,902.764 468.382,902.685 469.388,901.768Z" style="fill:rgb(247,247,247);fill-rule:nonzero;"/>
    </g>
    <g transform="matrix(4.16667,0,0,1.30101,0.000639775,-637.331)">
        <path d="M497.62,909.5L501.62,909.5C502.983,909.5 504.12,908.363 504.12,907C504.12,905.637 502.983,904.5 501.62,904.5L497.62,904.5C496.257,904.5 495.12,905.637 495.12,907C495.12,908.363 496.257,909.5 497.62,909.5Z" style="fill:rgb(247,247,247);fill-rule:nonzero;"/>
    </g>
    <g transform="matrix(4.16667,0,0,1.30101,0.000639775,-637.331)">
        <path d="M436.285,914.411C439.189,913.442 442.121,912.496 444.882,911.159C447.784,909.754 445.247,905.443 442.358,906.841C439.991,907.987 437.445,908.759 434.956,909.589C431.913,910.604 433.217,915.434 436.285,914.411Z" style="fill:rgb(247,247,247);fill-rule:nonzero;"/>
    </g>
    <g transform="matrix(4.16667,0,0,1.30101,0.000639775,-637.331)">
        <path d="M311.285,929.411C315.024,928.546 318.8,928.502 322.62,928.5C325.844,928.498 325.845,923.498 322.62,923.5C318.354,923.502 314.13,923.624 309.956,924.589C306.815,925.316 308.147,930.136 311.285,929.411Z" style="fill:rgb(247,247,247);fill-rule:nonzero;"/>
    </g>
    <g transform="matrix(4.16667,0,0,1.30101,0,-646.686)">
        <rect x="0.62" y="489.875" width="699.875" height="490.101" style="fill:rgb(254,235,174);fill-rule:nonzero;"/>
    </g>
    <g transform="matrix(4.16667,0,0,1.30101,0,-646.686)">
        <rect x="0.62" y="829" width="699.106" height="151" style="fill:rgb(255,232,213);fill-rule:nonzero;"/>
    </g>
    <g transform="matrix(2.78813,0,0,1.30101,463.894,-644.344)">
        <path d="M632.154,809.5C632.154,655.137 507.018,530 352.654,530C198.291,530 73.154,655.137 73.154,809.5L632.154,809.5Z" style="fill:rgb(254,240,188);fill-rule:nonzero;"/>
    </g>
    <g transform="matrix(2.78813,0,0,1.30101,463.894,-644.344)">
        <path d="M552.94,811.393C552.94,700.778 463.269,611.107 352.654,611.107C242.04,611.107 152.369,700.778 152.369,811.393L552.94,811.393Z" style="fill:rgb(254,246,203);fill-rule:nonzero;"/>
    </g>
    <g transform="matrix(2.78813,0,0,1.30101,463.894,-644.344)">
        <path d="M479.154,809.5C479.154,739.636 422.518,683 352.654,683C282.79,683 226.154,739.636 226.154,809.5L479.154,809.5Z" style="fill:rgb(255,252,225);fill-rule:nonzero;"/>
    </g>
    <g transform="matrix(4.16667,0,0,1.30101,0,-646.686)">
        <path d="M0.62,890.105C0.486,889.934 0.42,889.843 0.42,889.843L0.42,788.575L0.62,788.575L0.62,890.105Z" style="fill:rgb(249,249,249);"/>
    </g>
    <g transform="matrix(4.16667,0,0,1.30101,0,-646.686)">
        <path d="M699.726,903.265L699.726,829L0.62,829L0.62,890.105L0.62,788.575L73.926,788.575C73.414,795.483 73.154,802.462 73.154,809.5L152.378,809.5C152.372,810.133 152.369,810.758 152.369,811.393L552.94,811.393C552.94,810.758 552.937,810.133 552.931,809.5L632.154,809.5C632.154,802.462 631.894,795.483 631.383,788.575L699.726,788.575L699.726,903.265Z" style="fill:rgb(248,244,230);fill-rule:nonzero;"/>
    </g>
    <g transform="matrix(4.16667,0,0,1.30101,0,-646.686)">
        <path d="M612.764,918.061C609.351,918.061 606.139,917.907 603.215,917.569C571.582,913.909 525.348,888.79 495.221,887.571C494.248,887.531 493.263,887.512 492.254,887.512C462.012,887.512 415.537,904.804 357.228,913.069C345.654,914.71 334.335,915.377 323.155,915.377C276.129,915.377 231.635,903.555 181.736,902.57C175.569,902.448 170.053,902.388 165.071,902.388C120.154,902.388 118.632,907.283 75.241,916.069C69.484,917.235 64.037,917.748 58.904,917.748C23.218,917.748 2.827,892.932 0.62,890.105L0.62,829L699.726,829L699.726,903.265C699.726,903.265 646.29,918.063 612.764,918.061Z" style="fill:rgb(249,244,240);fill-rule:nonzero;"/>
    </g>
    <g transform="matrix(4.16667,0,0,1.30101,0,-646.686)">
        <path d="M632.154,809.5L552.931,809.5C552.865,802.433 552.434,795.449 551.654,788.575L631.383,788.575C631.894,795.483 632.154,802.462 632.154,809.5ZM152.378,809.5L73.154,809.5C73.154,802.462 73.414,795.483 73.926,788.575L153.655,788.575C152.875,795.449 152.444,802.433 152.378,809.5Z" style="fill:rgb(248,245,233);fill-rule:nonzero;"/>
    </g>
    <g transform="matrix(4.16667,0,0,1.30101,0,-646.686)">
        <path d="M552.94,811.393L152.369,811.393C152.369,810.758 152.372,810.133 152.378,809.5C152.444,802.433 152.875,795.449 153.655,788.575L227.877,788.575C226.743,795.383 226.154,802.37 226.154,809.5L479.154,809.5C479.154,802.37 478.565,795.383 477.432,788.575L551.654,788.575C552.434,795.449 552.865,802.433 552.931,809.5C552.937,810.133 552.94,810.758 552.94,811.393Z" style="fill:rgb(248,246,237);fill-rule:nonzero;"/>
    </g>
    <g transform="matrix(4.16667,0,0,1.30101,0,-646.686)">
        <path d="M479.154,809.5L226.154,809.5C226.154,802.37 226.743,795.383 227.877,788.575L477.432,788.575C478.565,795.383 479.154,802.37 479.154,809.5Z" style="fill:rgb(249,249,243);fill-rule:nonzero;"/>
    </g>
    <g transform="matrix(4.16667,0,0,1.30101,0,-646.686)">
        <path d="M699.726,903.265L699.726,795L699.726,788.575L699.726,903.265Z" style="fill:rgb(248,240,230);fill-rule:nonzero;"/>
    </g>
    <g transform="matrix(4.16667,0,0,1.30101,0,-646.686)">
        <path d="M0.42,764.577L699.725,764.577L699.725,865.845C699.725,865.845 640.714,912.208 592.716,902.448C544.718,892.687 526.719,869.505 465.222,870.725C403.725,871.945 349.728,909.768 289.731,901.228C229.734,892.687 169.737,879.266 139.739,880.486C109.74,881.706 84.241,898.787 52.743,902.448C21.244,906.108 0.42,879.266 0.42,879.266L0.42,764.577Z" style="fill:rgb(201,230,244);fill-rule:nonzero;"/>
    </g>
    <g transform="matrix(4.16667,0,0,1.30101,0,-646.686)">
        <path d="M313.62,896.5C327.479,896.216 339.811,889.699 353.285,887.411C356.459,886.872 355.108,882.054 351.956,882.589C338.948,884.799 326.983,891.227 313.62,891.5C310.4,891.566 310.394,896.566 313.62,896.5Z" style="fill:rgb(247,247,247);fill-rule:nonzero;"/>
    </g>
    <g transform="matrix(4.16667,0,0,1.30101,0,-646.686)">
        <path d="M239.358,887.159C243.573,889.191 247.924,890.416 252.62,890.5C255.846,890.558 255.841,885.557 252.62,885.5C248.83,885.432 245.29,884.484 241.882,882.841C238.992,881.448 236.455,885.759 239.358,887.159Z" style="fill:rgb(247,247,247);fill-rule:nonzero;"/>
    </g>
    <g transform="matrix(4.16667,0,0,1.30101,0,-646.686)">
        <path d="M96.882,895.159C106.353,890.153 115.874,885.23 125.774,881.116C134.551,877.469 143.94,873.65 153.556,873.668C170.099,873.698 188.137,881.942 204.285,875.411C207.234,874.218 205.946,869.38 202.956,870.589C186.673,877.176 167.742,868.272 150.886,868.699C141.308,868.941 131.619,873.313 122.904,876.935C113.123,881 103.715,885.896 94.358,890.841C91.506,892.348 94.033,896.664 96.882,895.159Z" style="fill:rgb(247,247,247);fill-rule:nonzero;"/>
    </g>
    <g transform="matrix(4.16667,0,0,1.30101,0,-646.686)">
        <path d="M453.285,874.411C473.569,870.966 495.534,871.487 515.831,874.51C536.669,877.615 555.077,892.302 576.62,891.5C579.834,891.38 579.846,886.38 576.62,886.5C565.194,886.925 554.218,882.256 543.794,878.119C533.926,874.202 524.363,870.586 513.783,869.209C493.546,866.574 472.13,866.163 451.956,869.589C448.782,870.128 450.132,874.946 453.285,874.411Z" style="fill:rgb(247,247,247);fill-rule:nonzero;"/>
    </g>
    <g transform="matrix(4.16667,0,0,1.30101,0,-646.686)">
        <path d="M697.956,862.589C671.627,872.222 647.175,888.239 618.62,890.5C615.428,890.753 615.404,895.755 618.62,895.5C647.771,893.192 672.424,877.238 699.285,867.411C702.287,866.312 700.991,861.479 697.956,862.589Z" style="fill:rgb(247,247,247);fill-rule:nonzero;"/>
    </g>
    <g transform="matrix(4.16667,0,0,1.30101,0,-646.686)">
        <path d="M375.62,879.5C396.963,878.051 417.671,870.611 438.285,865.411C441.41,864.622 440.083,859.8 436.956,860.589C416.804,865.673 396.48,873.083 375.62,874.5C372.421,874.717 372.4,879.719 375.62,879.5Z" style="fill:rgb(247,247,247);fill-rule:nonzero;"/>
    </g>
    <g transform="matrix(4.16667,0,0,1.30101,0,-646.686)">
        <path d="M32.852,894.768C45.643,904.715 64.072,905.607 79.62,904.5C82.817,904.272 82.839,899.271 79.62,899.5C65.634,900.495 47.978,900.246 36.388,891.232C33.875,889.278 30.309,892.79 32.852,894.768Z" style="fill:rgb(247,247,247);fill-rule:nonzero;"/>
    </g>
    <g transform="matrix(4.16667,0,0,1.30101,0,-646.686)">
        <path d="M0.852,863.768C17.581,877.392 35.957,885.36 57.62,886.5C60.843,886.67 60.827,881.669 57.62,881.5C37.369,880.434 20.033,872.973 4.387,860.232C1.911,858.215 -1.649,861.731 0.852,863.768Z" style="fill:rgb(247,247,247);fill-rule:nonzero;"/>
    </g>
    <g transform="matrix(4.16667,0,0,1.30101,0,-646.686)">
        <path d="M569.358,872.159C587.623,880.948 606.116,879.326 623.882,870.159C626.748,868.68 624.219,864.365 621.358,865.841C605.291,874.133 588.446,875.812 571.882,867.841C568.991,866.45 566.454,870.761 569.358,872.159Z" style="fill:rgb(247,247,247);fill-rule:nonzero;"/>
    </g>
    <g transform="matrix(4.16667,0,0,1.30101,0,-646.686)">
        <path d="M260.956,880.411C278.149,884.572 297.015,885.79 314.285,881.411C317.409,880.619 316.083,875.796 312.956,876.589C296.574,880.744 278.586,879.535 262.285,875.589C259.152,874.831 257.823,879.652 260.956,880.411Z" style="fill:rgb(247,247,247);fill-rule:nonzero;"/>
    </g>
    <g transform="matrix(4.16667,0,0,1.30101,0,-646.686)">
        <path d="M490.62,853.5C495.548,853.503 500.286,853.673 504.956,855.411C507.984,856.538 509.279,851.703 506.285,850.589C501.223,848.706 495.965,848.504 490.62,848.5C487.396,848.498 487.396,853.498 490.62,853.5Z" style="fill:rgb(247,247,247);fill-rule:nonzero;"/>
    </g>
    <g transform="matrix(4.16667,0,0,1.30101,0,-646.686)">
        <path d="M99.62,877.5C100.65,877.453 101.391,877.109 102.178,876.467C102.302,876.366 102.411,876.244 102.526,876.133C102.824,875.846 101.971,876.506 102.332,876.29C102.197,876.347 102.061,876.404 101.926,876.461C102.172,876.403 102.07,876.416 101.62,876.5C102.981,876.437 104.12,875.41 104.12,874C104.12,872.685 102.982,871.437 101.62,871.5C100.59,871.547 99.849,871.891 99.062,872.533C98.938,872.634 98.829,872.756 98.714,872.867C98.416,873.154 99.269,872.494 98.908,872.71C99.043,872.653 99.178,872.596 99.314,872.539C99.068,872.597 99.17,872.584 99.62,872.5C98.259,872.563 97.12,873.59 97.12,875C97.12,876.315 98.257,877.563 99.62,877.5Z" style="fill:rgb(247,247,247);fill-rule:nonzero;"/>
    </g>
    <g transform="matrix(4.16667,0,0,1.30101,0,-646.686)">
        <path d="M143.62,911.5C161.453,911.624 178.642,915.551 195.956,919.411C199.097,920.111 200.431,915.291 197.285,914.589C179.54,910.633 161.894,906.627 143.62,906.5C140.395,906.477 140.397,911.478 143.62,911.5Z" style="fill:rgb(247,247,247);fill-rule:nonzero;"/>
    </g>
    <g transform="matrix(4.16667,0,0,1.30101,0,-646.686)">
        <path d="M369.62,919.5C386.842,917.363 403.496,912.635 420.285,908.411C423.41,907.624 422.084,902.802 418.956,903.589C402.622,907.699 386.377,912.421 369.62,914.5C366.464,914.892 366.426,919.896 369.62,919.5Z" style="fill:rgb(247,247,247);fill-rule:nonzero;"/>
    </g>
    <g transform="matrix(4.16667,0,0,1.30101,0,-646.686)">
        <path d="M526.956,905.411C542.182,907.792 554.008,919.16 569.62,920.5C572.834,920.776 572.808,915.773 569.62,915.5C554.603,914.211 543.048,902.898 528.285,900.589C525.132,900.096 523.776,904.914 526.956,905.411Z" style="fill:rgb(247,247,247);fill-rule:nonzero;"/>
    </g>
    <g transform="matrix(4.16667,0,0,1.30101,0,-646.686)">
        <path d="M590.956,925.411C593.583,926.248 596.329,926.573 598.956,927.411C602.036,928.393 603.344,923.565 600.285,922.589C597.658,921.752 594.912,921.427 592.285,920.589C589.204,919.607 587.896,924.435 590.956,925.411Z" style="fill:rgb(247,247,247);fill-rule:nonzero;"/>
    </g>
    <g transform="matrix(4.16667,0,0,1.30101,0,-646.686)">
        <path d="M643.62,926.5C651.827,926.287 659.478,923.691 667.285,921.411C670.373,920.509 669.058,915.683 665.956,916.589C658.594,918.739 651.365,921.299 643.62,921.5C640.402,921.583 640.394,926.584 643.62,926.5Z" style="fill:rgb(247,247,247);fill-rule:nonzero;"/>
    </g>
    <g transform="matrix(4.16667,0,0,1.30101,0,-646.686)">
        <path d="M264.358,919.159C267.523,921.139 270.967,921.497 274.62,921.5C277.845,921.503 277.844,916.503 274.62,916.5C271.826,916.498 269.312,916.362 266.882,914.841C264.14,913.125 261.633,917.453 264.358,919.159Z" style="fill:rgb(247,247,247);fill-rule:nonzero;"/>
    </g>
    <g transform="matrix(4.16667,0,0,1.30101,0,-646.686)">
        <path d="M77.284,926.411C81.284,925.411 85.284,924.411 89.284,923.411C92.411,922.629 91.084,917.807 87.955,918.589C83.955,919.589 79.955,920.589 75.955,921.589C72.828,922.371 74.155,927.193 77.284,926.411Z" style="fill:rgb(247,247,247);fill-rule:nonzero;"/>
    </g>
    <g transform="matrix(4.16667,0,0,1.30101,0,-646.686)">
        <path d="M469.388,901.768C468.878,902.232 469.956,901.533 469.34,901.775C469.676,901.643 470.038,901.578 470.392,901.519C469.778,901.621 470.643,901.519 470.763,901.513C471.048,901.499 471.335,901.5 471.62,901.5C472.983,901.499 474.12,900.364 474.12,899C474.12,897.638 472.983,896.499 471.62,896.5C469.536,896.502 467.451,896.776 465.852,898.232C464.845,899.15 464.923,900.838 465.852,901.768C466.849,902.764 468.382,902.685 469.388,901.768Z" style="fill:rgb(247,247,247);fill-rule:nonzero;"/>
    </g>
    <g transform="matrix(4.16667,0,0,1.30101,0,-646.686)">
        <path d="M497.62,909.5L501.62,909.5C502.983,909.5 504.12,908.363 504.12,907C504.12,905.637 502.983,904.5 501.62,904.5L497.62,904.5C496.257,904.5 495.12,905.637 495.12,907C495.12,908.363 496.257,909.5 497.62,909.5Z" style="fill:rgb(247,247,247);fill-rule:nonzero;"/>
    </g>
    <g transform="matrix(4.16667,0,0,1.30101,0,-646.686)">
        <path d="M436.285,914.411C439.189,913.442 442.121,912.496 444.882,911.159C447.784,909.754 445.247,905.443 442.358,906.841C439.991,907.987 437.445,908.759 434.956,909.589C431.913,910.604 433.217,915.434 436.285,914.411Z" style="fill:rgb(247,247,247);fill-rule:nonzero;"/>
    </g>
    <g transform="matrix(4.16667,0,0,1.30101,0,-646.686)">
        <path d="M311.285,929.411C315.024,928.546 318.8,928.502 322.62,928.5C325.844,928.498 325.845,923.498 322.62,923.5C318.354,923.502 314.13,923.624 309.956,924.589C306.815,925.316 308.147,930.136 311.285,929.411Z" style="fill:rgb(247,247,247);fill-rule:nonzero;"/>
    </g>
</svg>
